<svg width="32" height="32" viewBox="0 0 100 100" fill="none" xmlns="http://www.w3.org/2000/svg">
  <polygon points="37.5,37.5 62.5,37.5 50,50" fill="#9BB463"/>
  <polygon points="22,78 78,78 61,61 39,61" fill="#9BB463"/>
  <g stroke="#5E7434" stroke-width="2.5" stroke-linecap="square">
    <line x1="22" y1="22" x2="78" y2="22"/>
    <line x1="22" y1="22" x2="78" y2="78"/>
    <line x1="22" y1="78" x2="78" y2="22"/>
    <line x1="22" y1="78" x2="78" y2="78"/>
  </g>
  <g fill="#5E7434">
    <rect x="12" y="12" width="20" height="20" transform="rotate(45 22 22)"/>
    <rect x="68" y="12" width="20" height="20" transform="rotate(45 78 22)"/>
    <rect x="68" y="68" width="20" height="20" transform="rotate(45 78 78)"/>
    <rect x="12" y="68" width="20" height="20" transform="rotate(45 22 78)"/>
  </g>
  <circle cx="50" cy="56.5" r="2.6" fill="#5E7434"/>
</svg>
